# WaveFront *.obj file (generated by Autodesk ATF)

mtllib left_wheel.mtl

g Body1

v -11.800000 -12.000000 -0.000000
v -11.661709 -12.000000 1.801262
v -11.250077 -12.000000 3.560303
v -10.574754 -12.000000 5.235894
v -9.651566 -12.000000 6.788760
v -8.502155 -12.000000 8.182504
v -7.153460 -12.000000 9.384456
v -5.637094 -12.000000 10.366445
v -3.988599 -12.000000 11.105453
v -2.246615 -12.000000 11.584158
v -0.451972 -12.000000 11.791341
v 1.353264 -12.000000 11.722145
v 3.126782 -12.000000 11.378191
v 4.827010 -12.000000 10.767543
v 6.414097 -12.000000 9.904512
v 7.850843 -12.000000 8.809328
v 9.103572 -12.000000 7.507661
v 10.142921 -12.000000 6.030020
v 10.944529 -12.000000 4.411041
v 11.489606 -12.000000 2.688671
v 11.765376 -12.000000 0.903281
v 11.765376 -12.000000 -0.903281
v 11.489606 -12.000000 -2.688671
v 10.944529 -12.000000 -4.411041
v 10.142921 -12.000000 -6.030020
v 9.103572 -12.000000 -7.507661
v 7.850843 -12.000000 -8.809328
v 6.414097 -12.000000 -9.904512
v 4.827010 -12.000000 -10.767543
v 3.126782 -12.000000 -11.378191
v 1.353264 -12.000000 -11.722145
v -0.451972 -12.000000 -11.791341
v -2.246615 -12.000000 -11.584158
v -3.988599 -12.000000 -11.105453
v -5.637094 -12.000000 -10.366445
v -7.153460 -12.000000 -9.384456
v -8.502155 -12.000000 -8.182504
v -9.651566 -12.000000 -6.788760
v -10.574754 -12.000000 -5.235894
v -11.250077 -12.000000 -3.560303
v -11.661709 -12.000000 -1.801262
v 8.674099 0.000000 8.000000
v 7.351248 0.000000 9.230338
v 5.856090 0.000000 10.244326
v 4.223670 0.000000 11.018194
v 2.492251 0.000000 11.533806
v 0.702416 0.000000 11.779075
v -1.103884 0.000000 11.748253
v -2.884309 0.000000 11.442061
v -4.597128 0.000000 10.867677
v -6.202195 0.000000 10.038564
v -7.661888 0.000000 8.974156
v -8.941992 0.000000 7.699401
v -10.012504 0.000000 6.244179
v -10.848331 0.000000 4.642598
v -11.429882 0.000000 2.932199
v -11.743527 0.000000 1.153071
v -11.781913 0.000000 -0.653083
v -11.544142 0.000000 -2.443930
v -11.035785 0.000000 -4.177493
v -10.268759 0.000000 -5.813139
v -9.261042 0.000000 -7.312531
v -8.036254 0.000000 -8.640522
v -6.623103 0.000000 -9.765987
v -5.054712 0.000000 -10.662546
v -3.367843 0.000000 -11.309184
v -1.602034 0.000000 -11.690744
v 0.201325 0.000000 -11.798282
v 1.999964 0.000000 -11.629280
v 3.751727 0.000000 -11.187696
v 5.415552 0.000000 -10.483883
v 6.952441 0.000000 -9.534336
v 8.326371 0.000000 -8.361312
v 9.505138 0.000000 -6.992307
v 10.461112 0.000000 -5.459407
v 11.171887 0.000000 -3.798544
v 11.620802 0.000000 -2.048646
v 11.797336 0.000000 -0.250730
v 11.697350 0.000000 1.553064
v 11.323188 0.000000 3.320454
v 10.683620 0.000000 5.010017
v 9.793637 0.000000 6.582148
v -0.017312 -12.000000 -0.000000
v 0.007711 0.000000 -0.009604
vt -12.000000 35.262462 0.000000
vt -0.000000 35.915879 0.000000
vt -12.000000 37.070793 0.000000
vt -12.000000 -37.070793 0.000000
vt 0.000000 -38.225708 0.000000
vt 0.000000 -36.417376 0.000000
vt -12.000000 -35.262462 0.000000
vt 0.000000 -34.609045 0.000000
vt -12.000000 -33.454131 0.000000
vt 0.000000 -32.800713 0.000000
vt -12.000000 -31.645799 0.000000
vt 0.000000 -30.992382 0.000000
vt -12.000000 -29.837468 0.000000
vt 0.000000 -29.184051 0.000000
vt -12.000000 -28.029136 0.000000
vt 0.000000 -27.375719 0.000000
vt -12.000000 -26.220805 0.000000
vt 0.000000 -25.567388 0.000000
vt -12.000000 -24.412474 0.000000
vt 0.000000 -23.759056 0.000000
vt -12.000000 -22.604142 0.000000
vt 0.000000 -21.950725 0.000000
vt -12.000000 -20.795811 0.000000
vt 0.000000 -20.142394 0.000000
vt -12.000000 -18.987479 0.000000
vt -0.000000 -18.334062 0.000000
vt -12.000000 -17.179148 0.000000
vt -0.000000 -16.525731 0.000000
vt -12.000000 -15.370817 0.000000
vt -0.000000 -14.717400 0.000000
vt -12.000000 -13.562485 0.000000
vt -0.000000 -12.909068 0.000000
vt -12.000000 -11.754154 0.000000
vt -0.000000 -11.100737 0.000000
vt -12.000000 -9.945823 0.000000
vt -0.000000 -9.292405 0.000000
vt -12.000000 -8.137491 0.000000
vt -0.000000 -7.484074 0.000000
vt -12.000000 -6.329160 0.000000
vt -0.000000 -5.675743 0.000000
vt -12.000000 -4.520828 0.000000
vt -0.000000 -3.867411 0.000000
vt -12.000000 -2.712497 0.000000
vt -0.000000 -2.059080 0.000000
vt -12.000000 -0.904166 0.000000
vt -0.000000 -0.250749 0.000000
vt -12.000000 0.904166 0.000000
vt -0.000000 1.557583 0.000000
vt -12.000000 2.712497 0.000000
vt -0.000000 3.365914 0.000000
vt -12.000000 4.520828 0.000000
vt -0.000000 5.174246 0.000000
vt -12.000000 6.329160 0.000000
vt -0.000000 6.982577 0.000000
vt -12.000000 8.137491 0.000000
vt -0.000000 8.790908 0.000000
vt -12.000000 9.945823 0.000000
vt -0.000000 10.599240 0.000000
vt -12.000000 11.754154 0.000000
vt -0.000000 12.407571 0.000000
vt -12.000000 13.562485 0.000000
vt -0.000000 14.215902 0.000000
vt -12.000000 15.370817 0.000000
vt -0.000000 16.024234 0.000000
vt -12.000000 17.179148 0.000000
vt -0.000000 17.832565 0.000000
vt -12.000000 18.987479 0.000000
vt -0.000000 19.640897 0.000000
vt -12.000000 20.795811 0.000000
vt -0.000000 21.449228 0.000000
vt -12.000000 22.604142 0.000000
vt -0.000000 23.257559 0.000000
vt -12.000000 24.412474 0.000000
vt -0.000000 25.065891 0.000000
vt -12.000000 26.220805 0.000000
vt -0.000000 26.874222 0.000000
vt -12.000000 28.029136 0.000000
vt -0.000000 28.682554 0.000000
vt -12.000000 29.837468 0.000000
vt -0.000000 30.490885 0.000000
vt -12.000000 31.645799 0.000000
vt -0.000000 32.299216 0.000000
vt -12.000000 33.454131 0.000000
vt -0.000000 34.107548 0.000000
vt -11.661709 1.801262 0.000000
vt -11.800000 -0.000000 0.000000
vt -0.017312 -0.000000 0.000000
vt -11.661709 -1.801262 0.000000
vt -11.250077 -3.560303 0.000000
vt -10.574754 -5.235894 0.000000
vt -9.651566 -6.788760 0.000000
vt -8.502155 -8.182504 0.000000
vt -7.153460 -9.384456 0.000000
vt -5.637094 -10.366445 0.000000
vt -3.988599 -11.105453 0.000000
vt -2.246615 -11.584158 0.000000
vt -0.451972 -11.791341 0.000000
vt 1.353264 -11.722145 0.000000
vt 3.126782 -11.378191 0.000000
vt 4.827010 -10.767543 0.000000
vt 6.414097 -9.904512 0.000000
vt 7.850843 -8.809328 0.000000
vt 9.103572 -7.507661 0.000000
vt 10.142921 -6.030020 0.000000
vt 10.944529 -4.411041 0.000000
vt 11.489606 -2.688671 0.000000
vt 11.765376 -0.903281 0.000000
vt 11.765376 0.903281 0.000000
vt 11.489606 2.688671 0.000000
vt 10.944529 4.411041 0.000000
vt 10.142921 6.030020 0.000000
vt 9.103572 7.507661 0.000000
vt 7.850843 8.809328 0.000000
vt 6.414097 9.904512 0.000000
vt 4.827010 10.767543 0.000000
vt 3.126782 11.378191 0.000000
vt 1.353264 11.722145 0.000000
vt -0.451972 11.791341 0.000000
vt -2.246615 11.584158 0.000000
vt -3.988599 11.105453 0.000000
vt -5.637094 10.366445 0.000000
vt -7.153460 9.384456 0.000000
vt -8.502155 8.182504 0.000000
vt -9.651566 6.788760 0.000000
vt -10.574754 5.235894 0.000000
vt -11.250077 3.560303 0.000000
vt -7.351248 9.230338 0.000000
vt -8.674099 8.000000 0.000000
vt -0.007711 -0.009604 0.000000
vt -9.793637 6.582148 0.000000
vt -10.683620 5.010017 0.000000
vt -11.323188 3.320454 0.000000
vt -11.697350 1.553064 0.000000
vt -11.797336 -0.250730 0.000000
vt -11.620802 -2.048646 0.000000
vt -11.171887 -3.798544 0.000000
vt -10.461112 -5.459407 0.000000
vt -9.505138 -6.992307 0.000000
vt -8.326371 -8.361312 0.000000
vt -6.952441 -9.534336 0.000000
vt -5.415552 -10.483883 0.000000
vt -3.751727 -11.187696 0.000000
vt -1.999964 -11.629280 0.000000
vt -0.201325 -11.798282 0.000000
vt 1.602034 -11.690744 0.000000
vt 3.367843 -11.309184 0.000000
vt 5.054712 -10.662546 0.000000
vt 6.623103 -9.765987 0.000000
vt 8.036254 -8.640522 0.000000
vt 9.261042 -7.312531 0.000000
vt 10.268759 -5.813139 0.000000
vt 11.035785 -4.177493 0.000000
vt 11.544142 -2.443930 0.000000
vt 11.781913 -0.653083 0.000000
vt 11.743527 1.153071 0.000000
vt 11.429882 2.932199 0.000000
vt 10.848331 4.642598 0.000000
vt 10.012504 6.244179 0.000000
vt 8.941992 7.699401 0.000000
vt 7.661888 8.974156 0.000000
vt 6.202195 10.038564 0.000000
vt 4.597128 10.867677 0.000000
vt 2.884309 11.442061 0.000000
vt 1.103884 11.748253 0.000000
vt -0.702416 11.779075 0.000000
vt -2.492251 11.533806 0.000000
vt -4.223670 11.018194 0.000000
vt -5.856090 10.244326 0.000000
vn -0.988280 -0.000000 0.152649
vn -0.995214 -0.000000 0.097718
vn -1.000000 -0.000000 0.000000
vn -0.998467 -0.000000 -0.055346
vn -0.988280 -0.000000 -0.152649
vn -0.978317 -0.000000 -0.207113
vn -0.953396 -0.000000 -0.301721
vn -0.935236 -0.000000 -0.354025
vn -0.896166 -0.000000 -0.443720
vn -0.870234 -0.000000 -0.492639
vn -0.817929 -0.000000 -0.575319
vn -0.784834 -0.000000 -0.619706
vn -0.720522 -0.000000 -0.693433
vn -0.681038 -0.000000 -0.732248
vn -0.606225 -0.000000 -0.795293
vn -0.561280 -0.000000 -0.827626
vn -0.477720 -0.000000 -0.878512
vn -0.428365 -0.000000 -0.903606
vn -0.338017 -0.000000 -0.941140
vn -0.285410 -0.000000 -0.958405
vn -0.190391 -0.000000 -0.981708
vn -0.135766 -0.000000 -0.990741
vn -0.038303 -0.000000 -0.999266
vn 0.017061 -0.000000 -0.999854
vn 0.114683 -0.000000 -0.993402
vn 0.169489 -0.000000 -0.985532
vn 0.264982 -0.000000 -0.964253
vn 0.317943 -0.000000 -0.948110
vn 0.409069 -0.000000 -0.912504
vn 0.458945 -0.000000 -0.888465
vn 0.543568 -0.000000 -0.839365
vn 0.589190 -0.000000 -0.807995
vn 0.665326 -0.000000 -0.746553
vn 0.705625 -0.000000 -0.708586
vn 0.771489 -0.000000 -0.636242
vn 0.805520 -0.000000 -0.592568
vn 0.859570 -0.000000 -0.511019
vn 0.886535 -0.000000 -0.462662
vn 0.927502 -0.000000 -0.373817
vn 0.946770 -0.000000 -0.321911
vn 0.973695 -0.000000 -0.227854
vn 0.984814 -0.000000 -0.173614
vn 0.997066 -0.000000 -0.076549
vn 0.999774 -0.000000 -0.021248
vn 0.997066 0.000000 0.076549
vn 0.991301 0.000000 0.131616
vn 0.973695 0.000000 0.227854
vn 0.959592 0.000000 0.281394
vn 0.927502 0.000000 0.373817
vn 0.905392 0.000000 0.424578
vn 0.859570 0.000000 0.511019
vn 0.829969 0.000000 0.557809
vn 0.771489 0.000000 0.636242
vn 0.735093 0.000000 0.677966
vn 0.665326 0.000000 0.746553
vn 0.622987 0.000000 0.782232
vn 0.543568 0.000000 0.839365
vn 0.496279 0.000000 0.868163
vn 0.409069 0.000000 0.912504
vn 0.357938 0.000000 0.933745
vn 0.264982 0.000000 0.964253
vn 0.211208 0.000000 0.977441
vn 0.114683 0.000000 0.993402
vn 0.059527 0.000000 0.998227
vn -0.038303 -0.000000 0.999266
vn -0.093549 -0.000000 0.995615
vn -0.190391 -0.000000 0.981708
vn -0.244433 -0.000000 0.969666
vn -0.338017 -0.000000 0.941140
vn -0.389587 -0.000000 0.920990
vn -0.477720 -0.000000 0.878512
vn -0.525610 -0.000000 0.850726
vn -0.606225 -0.000000 0.795293
vn -0.649313 -0.000000 0.760522
vn -0.720522 -0.000000 0.693433
vn -0.757796 -0.000000 0.652492
vn -0.817929 -0.000000 0.575319
vn -0.848517 -0.000000 0.529168
vn -0.896166 -0.000000 0.443720
vn -0.919350 -0.000000 0.393441
vn -0.953396 -0.000000 0.301721
vn -0.968634 -0.000000 0.248491
vn 0.000000 -1.000000 0.000000
vn 0.000000 -1.000000 0.000000
vn 0.000000 -1.000000 0.000000
vn 0.000000 -1.000000 0.000000
vn 0.000000 -1.000000 0.000000
vn 0.000000 -1.000000 0.000000
vn 0.000000 -1.000000 0.000000
vn 0.000000 -1.000000 0.000000
vn 0.000000 -1.000000 0.000000
vn 0.000000 -1.000000 0.000000
vn 0.000000 -1.000000 0.000000
vn 0.000000 -1.000000 0.000000
vn 0.000000 -1.000000 0.000000
vn 0.000000 -1.000000 0.000000
vn 0.000000 -1.000000 0.000000
vn 0.000000 -1.000000 0.000000
vn 0.000000 -1.000000 0.000000
vn 0.000000 -1.000000 0.000000
vn 0.000000 -1.000000 0.000000
vn 0.000000 -1.000000 0.000000
vn 0.000000 -1.000000 0.000000
vn 0.000000 -1.000000 0.000000
vn 0.000000 -1.000000 0.000000
vn 0.000000 -1.000000 0.000000
vn 0.000000 -1.000000 0.000000
vn 0.000000 -1.000000 0.000000
vn 0.000000 -1.000000 0.000000
vn 0.000000 -1.000000 0.000000
vn 0.000000 -1.000000 0.000000
vn 0.000000 -1.000000 0.000000
vn 0.000000 -1.000000 0.000000
vn 0.000000 -1.000000 0.000000
vn 0.000000 -1.000000 0.000000
vn 0.000000 -1.000000 0.000000
vn 0.000000 -1.000000 0.000000
vn 0.000000 -1.000000 0.000000
vn 0.000000 -1.000000 0.000000
vn 0.000000 -1.000000 0.000000
vn 0.000000 -1.000000 0.000000
vn 0.000000 -1.000000 0.000000
vn 0.000000 -1.000000 0.000000
vn 0.000000 -1.000000 0.000000
vn -0.000000 1.000000 -0.000000
vn -0.000000 1.000000 -0.000000
vn -0.000000 1.000000 -0.000000
vn -0.000000 1.000000 -0.000000
vn -0.000000 1.000000 -0.000000
vn -0.000000 1.000000 -0.000000
vn -0.000000 1.000000 -0.000000
vn -0.000000 1.000000 -0.000000
vn -0.000000 1.000000 -0.000000
vn -0.000000 1.000000 -0.000000
vn -0.000000 1.000000 -0.000000
vn -0.000000 1.000000 -0.000000
vn -0.000000 1.000000 -0.000000
vn -0.000000 1.000000 -0.000000
vn -0.000000 1.000000 -0.000000
vn -0.000000 1.000000 -0.000000
vn -0.000000 1.000000 -0.000000
vn -0.000000 1.000000 -0.000000
vn -0.000000 1.000000 -0.000000
vn -0.000000 1.000000 -0.000000
vn -0.000000 1.000000 -0.000000
vn -0.000000 1.000000 -0.000000
vn -0.000000 1.000000 -0.000000
vn -0.000000 1.000000 -0.000000
vn -0.000000 1.000000 -0.000000
vn -0.000000 1.000000 -0.000000
vn -0.000000 1.000000 -0.000000
vn -0.000000 1.000000 -0.000000
vn -0.000000 1.000000 -0.000000
vn -0.000000 1.000000 -0.000000
vn -0.000000 1.000000 -0.000000
vn -0.000000 1.000000 -0.000000
vn -0.000000 1.000000 -0.000000
vn -0.000000 1.000000 -0.000000
vn -0.000000 1.000000 -0.000000
vn -0.000000 1.000000 -0.000000
vn -0.000000 1.000000 -0.000000
vn -0.000000 1.000000 -0.000000
vn -0.000000 1.000000 -0.000000
vn -0.000000 1.000000 -0.000000
vn -0.000000 1.000000 -0.000000
vn -0.000000 1.000000 -0.000000
usemtl Powder_Coat_-_Rough_(Blue)
f 2/1/1 57/2/2 1/3/3
f 1/4/3 57/5/2 58/6/4
f 1/4/3 58/6/4 41/7/5
f 41/7/5 58/6/4 59/8/6
f 41/7/5 59/8/6 40/9/7
f 40/9/7 59/8/6 60/10/8
f 40/9/7 60/10/8 39/11/9
f 39/11/9 60/10/8 61/12/10
f 39/11/9 61/12/10 38/13/11
f 38/13/11 61/12/10 62/14/12
f 38/13/11 62/14/12 37/15/13
f 37/15/13 62/14/12 63/16/14
f 37/15/13 63/16/14 36/17/15
f 36/17/15 63/16/14 64/18/16
f 36/17/15 64/18/16 35/19/17
f 35/19/17 64/18/16 65/20/18
f 35/19/17 65/20/18 34/21/19
f 34/21/19 65/20/18 66/22/20
f 34/21/19 66/22/20 33/23/21
f 33/23/21 66/22/20 67/24/22
f 33/23/21 67/24/22 32/25/23
f 32/25/23 67/24/22 68/26/24
f 32/25/23 68/26/24 31/27/25
f 31/27/25 68/26/24 69/28/26
f 31/27/25 69/28/26 30/29/27
f 30/29/27 69/28/26 70/30/28
f 30/29/27 70/30/28 29/31/29
f 29/31/29 70/30/28 71/32/30
f 29/31/29 71/32/30 28/33/31
f 28/33/31 71/32/30 72/34/32
f 28/33/31 72/34/32 27/35/33
f 27/35/33 72/34/32 73/36/34
f 27/35/33 73/36/34 26/37/35
f 26/37/35 73/36/34 74/38/36
f 26/37/35 74/38/36 25/39/37
f 25/39/37 74/38/36 75/40/38
f 25/39/37 75/40/38 24/41/39
f 24/41/39 75/40/38 76/42/40
f 24/41/39 76/42/40 23/43/41
f 23/43/41 76/42/40 77/44/42
f 23/43/41 77/44/42 22/45/43
f 22/45/43 77/44/42 78/46/44
f 22/45/43 78/46/44 21/47/45
f 21/47/45 78/46/44 79/48/46
f 21/47/45 79/48/46 20/49/47
f 20/49/47 79/48/46 80/50/48
f 20/49/47 80/50/48 19/51/49
f 19/51/49 80/50/48 81/52/50
f 19/51/49 81/52/50 18/53/51
f 18/53/51 81/52/50 82/54/52
f 18/53/51 82/54/52 17/55/53
f 17/55/53 82/54/52 42/56/54
f 17/55/53 42/56/54 16/57/55
f 16/57/55 42/56/54 43/58/56
f 16/57/55 43/58/56 15/59/57
f 15/59/57 43/58/56 44/60/58
f 15/59/57 44/60/58 14/61/59
f 14/61/59 44/60/58 45/62/60
f 14/61/59 45/62/60 13/63/61
f 13/63/61 45/62/60 46/64/62
f 13/63/61 46/64/62 12/65/63
f 12/65/63 46/64/62 47/66/64
f 12/65/63 47/66/64 11/67/65
f 11/67/65 47/66/64 48/68/66
f 11/67/65 48/68/66 10/69/67
f 10/69/67 48/68/66 49/70/68
f 10/69/67 49/70/68 9/71/69
f 9/71/69 49/70/68 50/72/70
f 9/71/69 50/72/70 8/73/71
f 8/73/71 50/72/70 51/74/72
f 8/73/71 51/74/72 7/75/73
f 7/75/73 51/74/72 52/76/74
f 7/75/73 52/76/74 6/77/75
f 6/77/75 52/76/74 53/78/76
f 6/77/75 53/78/76 5/79/77
f 5/79/77 53/78/76 54/80/78
f 5/79/77 54/80/78 4/81/79
f 4/81/79 54/80/78 55/82/80
f 4/81/79 55/82/80 3/83/81
f 3/83/81 55/82/80 56/84/82
f 3/83/81 56/84/82 2/1/1
f 2/1/1 56/84/82 57/2/2
f 2/85/83 1/86/84 83/87/85
f 83/87/85 1/86/84 41/88/86
f 83/87/85 41/88/86 40/89/87
f 40/89/87 39/90/88 83/87/85
f 83/87/85 39/90/88 38/91/89
f 83/87/85 38/91/89 37/92/90
f 37/92/90 36/93/91 83/87/85
f 83/87/85 36/93/91 35/94/92
f 83/87/85 35/94/92 34/95/93
f 34/95/93 33/96/94 83/87/85
f 83/87/85 33/96/94 32/97/95
f 83/87/85 32/97/95 31/98/96
f 31/98/96 30/99/97 83/87/85
f 83/87/85 30/99/97 29/100/98
f 83/87/85 29/100/98 28/101/99
f 28/101/99 27/102/100 83/87/85
f 83/87/85 27/102/100 26/103/101
f 83/87/85 26/103/101 25/104/102
f 25/104/102 24/105/103 83/87/85
f 83/87/85 24/105/103 23/106/104
f 83/87/85 23/106/104 22/107/105
f 22/107/105 21/108/106 83/87/85
f 83/87/85 21/108/106 20/109/107
f 83/87/85 20/109/107 19/110/108
f 19/110/108 18/111/109 83/87/85
f 83/87/85 18/111/109 17/112/110
f 83/87/85 17/112/110 16/113/111
f 16/113/111 15/114/112 83/87/85
f 83/87/85 15/114/112 14/115/113
f 83/87/85 14/115/113 13/116/114
f 13/116/114 12/117/115 83/87/85
f 83/87/85 12/117/115 11/118/116
f 83/87/85 11/118/116 10/119/117
f 10/119/117 9/120/118 83/87/85
f 83/87/85 9/120/118 8/121/119
f 83/87/85 8/121/119 7/122/120
f 7/122/120 6/123/121 83/87/85
f 83/87/85 6/123/121 5/124/122
f 83/87/85 5/124/122 4/125/123
f 4/125/123 3/126/124 83/87/85
f 83/87/85 3/126/124 2/85/83
f 43/127/125 42/128/126 84/129/127
f 84/129/127 42/128/126 82/130/128
f 84/129/127 82/130/128 81/131/129
f 81/131/129 80/132/130 84/129/127
f 84/129/127 80/132/130 79/133/131
f 84/129/127 79/133/131 78/134/132
f 78/134/132 77/135/133 84/129/127
f 84/129/127 77/135/133 76/136/134
f 84/129/127 76/136/134 75/137/135
f 75/137/135 74/138/136 84/129/127
f 84/129/127 74/138/136 73/139/137
f 84/129/127 73/139/137 72/140/138
f 72/140/138 71/141/139 84/129/127
f 84/129/127 71/141/139 70/142/140
f 84/129/127 70/142/140 69/143/141
f 69/143/141 68/144/142 84/129/127
f 84/129/127 68/144/142 67/145/143
f 84/129/127 67/145/143 66/146/144
f 66/146/144 65/147/145 84/129/127
f 84/129/127 65/147/145 64/148/146
f 84/129/127 64/148/146 63/149/147
f 63/149/147 62/150/148 84/129/127
f 84/129/127 62/150/148 61/151/149
f 84/129/127 61/151/149 60/152/150
f 60/152/150 59/153/151 84/129/127
f 84/129/127 59/153/151 58/154/152
f 84/129/127 58/154/152 57/155/153
f 57/155/153 56/156/154 84/129/127
f 84/129/127 56/156/154 55/157/155
f 84/129/127 55/157/155 54/158/156
f 54/158/156 53/159/157 84/129/127
f 84/129/127 53/159/157 52/160/158
f 84/129/127 52/160/158 51/161/159
f 51/161/159 50/162/160 84/129/127
f 84/129/127 50/162/160 49/163/161
f 84/129/127 49/163/161 48/164/162
f 48/164/162 47/165/163 84/129/127
f 84/129/127 47/165/163 46/166/164
f 84/129/127 46/166/164 45/167/165
f 45/167/165 44/168/166 84/129/127
f 84/129/127 44/168/166 43/127/125
# 84 vertices
# 168 texture params
# 166 normals
# 164 facets

# 1 groups
