# WaveFront *.obj file (generated by Autodesk ATF)

mtllib right_wheel.mtl

g Body1

v -8.674099 0.000000 8.000000
v -9.793637 0.000000 6.582148
v -10.683620 0.000000 5.010017
v -11.323188 0.000000 3.320454
v -11.697350 0.000000 1.553064
v -11.797336 0.000000 -0.250730
v -11.620802 0.000000 -2.048646
v -11.171887 0.000000 -3.798544
v -10.461112 0.000000 -5.459407
v -9.505138 0.000000 -6.992307
v -8.326371 0.000000 -8.361312
v -6.952441 0.000000 -9.534336
v -5.415552 0.000000 -10.483883
v -3.751727 0.000000 -11.187696
v -1.999964 0.000000 -11.629280
v -0.201325 0.000000 -11.798282
v 1.602034 0.000000 -11.690744
v 3.367843 0.000000 -11.309184
v 5.054712 0.000000 -10.662546
v 6.623103 0.000000 -9.765987
v 8.036254 0.000000 -8.640522
v 9.261042 0.000000 -7.312531
v 10.268759 0.000000 -5.813139
v 11.035785 0.000000 -4.177493
v 11.544142 0.000000 -2.443930
v 11.781913 0.000000 -0.653083
v 11.743527 0.000000 1.153071
v 11.429882 0.000000 2.932199
v 10.848331 0.000000 4.642598
v 10.012504 0.000000 6.244179
v 8.941992 0.000000 7.699401
v 7.661888 0.000000 8.974156
v 6.202195 0.000000 10.038564
v 4.597128 0.000000 10.867677
v 2.884309 0.000000 11.442061
v 1.103884 0.000000 11.748253
v -0.702416 0.000000 11.779075
v -2.492251 0.000000 11.533806
v -4.223670 0.000000 11.018194
v -5.856090 0.000000 10.244326
v -7.351248 0.000000 9.230338
v -0.007711 0.000000 -0.009604
v -11.800000 12.000000 -0.000000
v -11.661709 12.000000 1.801262
v -11.250077 12.000000 3.560303
v -10.574754 12.000000 5.235894
v -9.651566 12.000000 6.788760
v -8.502155 12.000000 8.182504
v -7.153460 12.000000 9.384456
v -5.637094 12.000000 10.366445
v -3.988599 12.000000 11.105453
v -2.246615 12.000000 11.584158
v -0.451972 12.000000 11.791341
v 1.353264 12.000000 11.722145
v 3.126782 12.000000 11.378191
v 4.827010 12.000000 10.767543
v 6.414097 12.000000 9.904512
v 7.850843 12.000000 8.809328
v 9.103572 12.000000 7.507661
v 10.142921 12.000000 6.030020
v 10.944529 12.000000 4.411041
v 11.489606 12.000000 2.688671
v 11.765376 12.000000 0.903281
v 11.765376 12.000000 -0.903281
v 11.489606 12.000000 -2.688671
v 10.944529 12.000000 -4.411041
v 10.142921 12.000000 -6.030020
v 9.103572 12.000000 -7.507661
v 7.850843 12.000000 -8.809328
v 6.414097 12.000000 -9.904512
v 4.827010 12.000000 -10.767543
v 3.126782 12.000000 -11.378191
v 1.353264 12.000000 -11.722145
v -0.451972 12.000000 -11.791341
v -2.246615 12.000000 -11.584158
v -3.988599 12.000000 -11.105453
v -5.637094 12.000000 -10.366445
v -7.153460 12.000000 -9.384456
v -8.502155 12.000000 -8.182504
v -9.651566 12.000000 -6.788760
v -10.574754 12.000000 -5.235894
v -11.250077 12.000000 -3.560303
v -11.661709 12.000000 -1.801262
v -0.017312 12.000000 -0.000000
vt -7.351248 9.230338 0.000000
vt -8.674099 8.000000 0.000000
vt -0.007711 -0.009604 0.000000
vt -9.793637 6.582148 0.000000
vt -10.683620 5.010017 0.000000
vt -11.323188 3.320454 0.000000
vt -11.697350 1.553064 0.000000
vt -11.797336 -0.250730 0.000000
vt -11.620802 -2.048646 0.000000
vt -11.171887 -3.798544 0.000000
vt -10.461112 -5.459407 0.000000
vt -9.505138 -6.992307 0.000000
vt -8.326371 -8.361312 0.000000
vt -6.952441 -9.534336 0.000000
vt -5.415552 -10.483883 0.000000
vt -3.751727 -11.187696 0.000000
vt -1.999964 -11.629280 0.000000
vt -0.201325 -11.798282 0.000000
vt 1.602034 -11.690744 0.000000
vt 3.367843 -11.309184 0.000000
vt 5.054712 -10.662546 0.000000
vt 6.623103 -9.765987 0.000000
vt 8.036254 -8.640522 0.000000
vt 9.261042 -7.312531 0.000000
vt 10.268759 -5.813139 0.000000
vt 11.035785 -4.177493 0.000000
vt 11.544142 -2.443930 0.000000
vt 11.781913 -0.653083 0.000000
vt 11.743527 1.153071 0.000000
vt 11.429882 2.932199 0.000000
vt 10.848331 4.642598 0.000000
vt 10.012504 6.244179 0.000000
vt 8.941992 7.699401 0.000000
vt 7.661888 8.974156 0.000000
vt 6.202195 10.038564 0.000000
vt 4.597128 10.867677 0.000000
vt 2.884309 11.442061 0.000000
vt 1.103884 11.748253 0.000000
vt -0.702416 11.779075 0.000000
vt -2.492251 11.533806 0.000000
vt -4.223670 11.018194 0.000000
vt -5.856090 10.244326 0.000000
vt 11.661709 -1.801262 0.000000
vt 11.800000 -0.000000 0.000000
vt 0.017312 -0.000000 0.000000
vt 11.661709 1.801262 0.000000
vt 11.250077 3.560303 0.000000
vt 10.574754 5.235894 0.000000
vt 9.651566 6.788760 0.000000
vt 8.502155 8.182504 0.000000
vt 7.153460 9.384456 0.000000
vt 5.637094 10.366445 0.000000
vt 3.988599 11.105453 0.000000
vt 2.246615 11.584158 0.000000
vt 0.451972 11.791341 0.000000
vt -1.353264 11.722145 0.000000
vt -3.126782 11.378191 0.000000
vt -4.827010 10.767543 0.000000
vt -6.414097 9.904512 0.000000
vt -7.850843 8.809328 0.000000
vt -9.103572 7.507661 0.000000
vt -10.142921 6.030020 0.000000
vt -10.944529 4.411041 0.000000
vt -11.489606 2.688671 0.000000
vt -11.765376 0.903281 0.000000
vt -11.765376 -0.903281 0.000000
vt -11.489606 -2.688671 0.000000
vt -10.944529 -4.411041 0.000000
vt -10.142921 -6.030020 0.000000
vt -9.103572 -7.507661 0.000000
vt -7.850843 -8.809328 0.000000
vt -6.414097 -9.904512 0.000000
vt -4.827010 -10.767543 0.000000
vt -3.126782 -11.378191 0.000000
vt -1.353264 -11.722145 0.000000
vt 0.451972 -11.791341 0.000000
vt 2.246615 -11.584158 0.000000
vt 3.988599 -11.105453 0.000000
vt 5.637094 -10.366445 0.000000
vt 7.153460 -9.384456 0.000000
vt 8.502155 -8.182504 0.000000
vt 9.651566 -6.788760 0.000000
vt 10.574754 -5.235894 0.000000
vt 11.250077 -3.560303 0.000000
vt 12.000000 -35.262462 0.000000
vt -0.000000 -36.820045 0.000000
vt 12.000000 -37.070793 0.000000
vt 12.000000 37.070793 0.000000
vt 0.000000 37.321542 0.000000
vt -0.000000 35.513210 0.000000
vt 12.000000 35.262462 0.000000
vt -0.000000 33.704879 0.000000
vt 12.000000 33.454131 0.000000
vt -0.000000 31.896548 0.000000
vt 12.000000 31.645799 0.000000
vt -0.000000 30.088216 0.000000
vt 12.000000 29.837468 0.000000
vt -0.000000 28.279885 0.000000
vt 12.000000 28.029136 0.000000
vt -0.000000 26.471554 0.000000
vt 12.000000 26.220805 0.000000
vt -0.000000 24.663222 0.000000
vt 12.000000 24.412474 0.000000
vt -0.000000 22.854891 0.000000
vt 12.000000 22.604142 0.000000
vt -0.000000 21.046559 0.000000
vt 12.000000 20.795811 0.000000
vt -0.000000 19.238228 0.000000
vt 12.000000 18.987479 0.000000
vt 0.000000 17.429897 0.000000
vt 12.000000 17.179148 0.000000
vt -0.000000 15.621565 0.000000
vt 12.000000 15.370817 0.000000
vt -0.000000 13.813234 0.000000
vt 12.000000 13.562485 0.000000
vt -0.000000 12.004903 0.000000
vt 12.000000 11.754154 0.000000
vt -0.000000 10.196571 0.000000
vt 12.000000 9.945823 0.000000
vt -0.000000 8.388240 0.000000
vt 12.000000 8.137491 0.000000
vt -0.000000 6.579908 0.000000
vt 12.000000 6.329160 0.000000
vt -0.000000 4.771577 0.000000
vt 12.000000 4.520828 0.000000
vt -0.000000 2.963246 0.000000
vt 12.000000 2.712497 0.000000
vt -0.000000 1.154914 0.000000
vt 12.000000 0.904166 0.000000
vt -0.000000 -0.653417 0.000000
vt 12.000000 -0.904166 0.000000
vt -0.000000 -2.461749 0.000000
vt 12.000000 -2.712497 0.000000
vt -0.000000 -4.270080 0.000000
vt 12.000000 -4.520828 0.000000
vt -0.000000 -6.078411 0.000000
vt 12.000000 -6.329160 0.000000
vt -0.000000 -7.886743 0.000000
vt 12.000000 -8.137491 0.000000
vt -0.000000 -9.695074 0.000000
vt 12.000000 -9.945823 0.000000
vt -0.000000 -11.503405 0.000000
vt 12.000000 -11.754154 0.000000
vt -0.000000 -13.311737 0.000000
vt 12.000000 -13.562485 0.000000
vt -0.000000 -15.120068 0.000000
vt 12.000000 -15.370817 0.000000
vt -0.000000 -16.928400 0.000000
vt 12.000000 -17.179148 0.000000
vt -0.000000 -18.736731 0.000000
vt 12.000000 -18.987479 0.000000
vt -0.000000 -20.545062 0.000000
vt 12.000000 -20.795811 0.000000
vt -0.000000 -22.353394 0.000000
vt 12.000000 -22.604142 0.000000
vt -0.000000 -24.161725 0.000000
vt 12.000000 -24.412474 0.000000
vt -0.000000 -25.970056 0.000000
vt 12.000000 -26.220805 0.000000
vt -0.000000 -27.778388 0.000000
vt 12.000000 -28.029136 0.000000
vt -0.000000 -29.586719 0.000000
vt 12.000000 -29.837468 0.000000
vt -0.000000 -31.395051 0.000000
vt 12.000000 -31.645799 0.000000
vt -0.000000 -33.203382 0.000000
vt 12.000000 -33.454131 0.000000
vt -0.000000 -35.011713 0.000000
vn -0.000000 -1.000000 -0.000000
vn -0.000000 -1.000000 -0.000000
vn -0.000000 -1.000000 -0.000000
vn -0.000000 -1.000000 -0.000000
vn -0.000000 -1.000000 -0.000000
vn -0.000000 -1.000000 -0.000000
vn -0.000000 -1.000000 -0.000000
vn -0.000000 -1.000000 -0.000000
vn -0.000000 -1.000000 -0.000000
vn -0.000000 -1.000000 -0.000000
vn -0.000000 -1.000000 -0.000000
vn -0.000000 -1.000000 -0.000000
vn -0.000000 -1.000000 -0.000000
vn -0.000000 -1.000000 -0.000000
vn -0.000000 -1.000000 -0.000000
vn -0.000000 -1.000000 -0.000000
vn -0.000000 -1.000000 -0.000000
vn -0.000000 -1.000000 -0.000000
vn -0.000000 -1.000000 -0.000000
vn -0.000000 -1.000000 -0.000000
vn -0.000000 -1.000000 -0.000000
vn -0.000000 -1.000000 -0.000000
vn -0.000000 -1.000000 -0.000000
vn -0.000000 -1.000000 -0.000000
vn -0.000000 -1.000000 -0.000000
vn -0.000000 -1.000000 -0.000000
vn -0.000000 -1.000000 -0.000000
vn -0.000000 -1.000000 -0.000000
vn -0.000000 -1.000000 -0.000000
vn -0.000000 -1.000000 -0.000000
vn -0.000000 -1.000000 -0.000000
vn -0.000000 -1.000000 -0.000000
vn -0.000000 -1.000000 -0.000000
vn -0.000000 -1.000000 -0.000000
vn -0.000000 -1.000000 -0.000000
vn -0.000000 -1.000000 -0.000000
vn -0.000000 -1.000000 -0.000000
vn -0.000000 -1.000000 -0.000000
vn -0.000000 -1.000000 -0.000000
vn -0.000000 -1.000000 -0.000000
vn -0.000000 -1.000000 -0.000000
vn -0.000000 -1.000000 -0.000000
vn 0.000000 1.000000 0.000000
vn 0.000000 1.000000 0.000000
vn 0.000000 1.000000 0.000000
vn 0.000000 1.000000 0.000000
vn 0.000000 1.000000 0.000000
vn 0.000000 1.000000 0.000000
vn 0.000000 1.000000 0.000000
vn 0.000000 1.000000 0.000000
vn 0.000000 1.000000 0.000000
vn 0.000000 1.000000 0.000000
vn 0.000000 1.000000 0.000000
vn 0.000000 1.000000 0.000000
vn 0.000000 1.000000 0.000000
vn 0.000000 1.000000 0.000000
vn 0.000000 1.000000 0.000000
vn 0.000000 1.000000 0.000000
vn 0.000000 1.000000 0.000000
vn 0.000000 1.000000 0.000000
vn 0.000000 1.000000 0.000000
vn 0.000000 1.000000 0.000000
vn 0.000000 1.000000 0.000000
vn 0.000000 1.000000 0.000000
vn 0.000000 1.000000 0.000000
vn 0.000000 1.000000 0.000000
vn 0.000000 1.000000 0.000000
vn 0.000000 1.000000 0.000000
vn 0.000000 1.000000 0.000000
vn 0.000000 1.000000 0.000000
vn 0.000000 1.000000 0.000000
vn 0.000000 1.000000 0.000000
vn 0.000000 1.000000 0.000000
vn 0.000000 1.000000 0.000000
vn 0.000000 1.000000 0.000000
vn 0.000000 1.000000 0.000000
vn 0.000000 1.000000 0.000000
vn 0.000000 1.000000 0.000000
vn 0.000000 1.000000 0.000000
vn 0.000000 1.000000 0.000000
vn 0.000000 1.000000 0.000000
vn 0.000000 1.000000 0.000000
vn 0.000000 1.000000 0.000000
vn 0.000000 1.000000 0.000000
vn -0.988280 0.000000 -0.152649
vn -0.999774 0.000000 -0.021248
vn -1.000000 0.000000 -0.000000
vn -0.991301 0.000000 0.131616
vn -0.988280 0.000000 0.152649
vn -0.959592 0.000000 0.281394
vn -0.953396 0.000000 0.301721
vn -0.905392 0.000000 0.424578
vn -0.896166 0.000000 0.443720
vn -0.829969 0.000000 0.557809
vn -0.817929 0.000000 0.575319
vn -0.735093 0.000000 0.677966
vn -0.720522 0.000000 0.693433
vn -0.622987 0.000000 0.782232
vn -0.606225 0.000000 0.795293
vn -0.496279 0.000000 0.868163
vn -0.477720 0.000000 0.878512
vn -0.357938 0.000000 0.933745
vn -0.338017 0.000000 0.941140
vn -0.211208 0.000000 0.977441
vn -0.190391 0.000000 0.981708
vn -0.059527 0.000000 0.998227
vn -0.038303 0.000000 0.999266
vn 0.093549 -0.000000 0.995615
vn 0.114683 -0.000000 0.993402
vn 0.244433 -0.000000 0.969666
vn 0.264982 -0.000000 0.964253
vn 0.389587 -0.000000 0.920990
vn 0.409069 -0.000000 0.912504
vn 0.525610 -0.000000 0.850726
vn 0.543568 -0.000000 0.839365
vn 0.649313 -0.000000 0.760522
vn 0.665326 -0.000000 0.746553
vn 0.757796 -0.000000 0.652492
vn 0.771489 -0.000000 0.636242
vn 0.848517 -0.000000 0.529168
vn 0.859570 -0.000000 0.511019
vn 0.919350 -0.000000 0.393441
vn 0.927502 -0.000000 0.373817
vn 0.968634 -0.000000 0.248491
vn 0.973695 -0.000000 0.227854
vn 0.995214 -0.000000 0.097718
vn 0.997066 -0.000000 0.076549
vn 0.998467 0.000000 -0.055346
vn 0.997066 0.000000 -0.076549
vn 0.978317 0.000000 -0.207113
vn 0.973695 0.000000 -0.227854
vn 0.935236 0.000000 -0.354025
vn 0.927502 0.000000 -0.373817
vn 0.870234 0.000000 -0.492639
vn 0.859570 0.000000 -0.511019
vn 0.784834 0.000000 -0.619706
vn 0.771489 0.000000 -0.636242
vn 0.681038 0.000000 -0.732248
vn 0.665326 0.000000 -0.746553
vn 0.561280 0.000000 -0.827626
vn 0.543568 0.000000 -0.839365
vn 0.428365 0.000000 -0.903606
vn 0.409069 0.000000 -0.912504
vn 0.285410 0.000000 -0.958405
vn 0.264982 0.000000 -0.964253
vn 0.135766 0.000000 -0.990741
vn 0.114683 0.000000 -0.993402
vn -0.017061 0.000000 -0.999854
vn -0.038303 0.000000 -0.999266
vn -0.169489 0.000000 -0.985532
vn -0.190391 0.000000 -0.981708
vn -0.317943 0.000000 -0.948110
vn -0.338017 0.000000 -0.941140
vn -0.458945 0.000000 -0.888465
vn -0.477720 0.000000 -0.878512
vn -0.589190 0.000000 -0.807995
vn -0.606225 0.000000 -0.795293
vn -0.705625 0.000000 -0.708586
vn -0.720522 0.000000 -0.693433
vn -0.805520 0.000000 -0.592568
vn -0.817929 0.000000 -0.575319
vn -0.886535 0.000000 -0.462662
vn -0.896166 0.000000 -0.443720
vn -0.946770 0.000000 -0.321911
vn -0.953396 0.000000 -0.301721
vn -0.984814 0.000000 -0.173614
usemtl Powder_Coat_-_Rough_(Blue)
f 41/1/1 1/2/2 42/3/3
f 42/3/3 1/2/2 2/4/4
f 42/3/3 2/4/4 3/5/5
f 3/5/5 4/6/6 42/3/3
f 42/3/3 4/6/6 5/7/7
f 42/3/3 5/7/7 6/8/8
f 6/8/8 7/9/9 42/3/3
f 42/3/3 7/9/9 8/10/10
f 42/3/3 8/10/10 9/11/11
f 9/11/11 10/12/12 42/3/3
f 42/3/3 10/12/12 11/13/13
f 42/3/3 11/13/13 12/14/14
f 12/14/14 13/15/15 42/3/3
f 42/3/3 13/15/15 14/16/16
f 42/3/3 14/16/16 15/17/17
f 15/17/17 16/18/18 42/3/3
f 42/3/3 16/18/18 17/19/19
f 42/3/3 17/19/19 18/20/20
f 18/20/20 19/21/21 42/3/3
f 42/3/3 19/21/21 20/22/22
f 42/3/3 20/22/22 21/23/23
f 21/23/23 22/24/24 42/3/3
f 42/3/3 22/24/24 23/25/25
f 42/3/3 23/25/25 24/26/26
f 24/26/26 25/27/27 42/3/3
f 42/3/3 25/27/27 26/28/28
f 42/3/3 26/28/28 27/29/29
f 27/29/29 28/30/30 42/3/3
f 42/3/3 28/30/30 29/31/31
f 42/3/3 29/31/31 30/32/32
f 30/32/32 31/33/33 42/3/3
f 42/3/3 31/33/33 32/34/34
f 42/3/3 32/34/34 33/35/35
f 33/35/35 34/36/36 42/3/3
f 42/3/3 34/36/36 35/37/37
f 42/3/3 35/37/37 36/38/38
f 36/38/38 37/39/39 42/3/3
f 42/3/3 37/39/39 38/40/40
f 42/3/3 38/40/40 39/41/41
f 39/41/41 40/42/42 42/3/3
f 42/3/3 40/42/42 41/1/1
f 83/43/43 43/44/44 84/45/45
f 84/45/45 43/44/44 44/46/46
f 84/45/45 44/46/46 45/47/47
f 45/47/47 46/48/48 84/45/45
f 84/45/45 46/48/48 47/49/49
f 84/45/45 47/49/49 48/50/50
f 48/50/50 49/51/51 84/45/45
f 84/45/45 49/51/51 50/52/52
f 84/45/45 50/52/52 51/53/53
f 51/53/53 52/54/54 84/45/45
f 84/45/45 52/54/54 53/55/55
f 84/45/45 53/55/55 54/56/56
f 54/56/56 55/57/57 84/45/45
f 84/45/45 55/57/57 56/58/58
f 84/45/45 56/58/58 57/59/59
f 57/59/59 58/60/60 84/45/45
f 84/45/45 58/60/60 59/61/61
f 84/45/45 59/61/61 60/62/62
f 60/62/62 61/63/63 84/45/45
f 84/45/45 61/63/63 62/64/64
f 84/45/45 62/64/64 63/65/65
f 63/65/65 64/66/66 84/45/45
f 84/45/45 64/66/66 65/67/67
f 84/45/45 65/67/67 66/68/68
f 66/68/68 67/69/69 84/45/45
f 84/45/45 67/69/69 68/70/70
f 84/45/45 68/70/70 69/71/71
f 69/71/71 70/72/72 84/45/45
f 84/45/45 70/72/72 71/73/73
f 84/45/45 71/73/73 72/74/74
f 72/74/74 73/75/75 84/45/45
f 84/45/45 73/75/75 74/76/76
f 84/45/45 74/76/76 75/77/77
f 75/77/77 76/78/78 84/45/45
f 84/45/45 76/78/78 77/79/79
f 84/45/45 77/79/79 78/80/80
f 78/80/80 79/81/81 84/45/45
f 84/45/45 79/81/81 80/82/82
f 84/45/45 80/82/82 81/83/83
f 81/83/83 82/84/84 84/45/45
f 84/45/45 82/84/84 83/43/43
f 83/85/85 6/86/86 43/87/87
f 43/88/87 6/89/86 5/90/88
f 43/88/87 5/90/88 44/91/89
f 44/91/89 5/90/88 4/92/90
f 44/91/89 4/92/90 45/93/91
f 45/93/91 4/92/90 3/94/92
f 45/93/91 3/94/92 46/95/93
f 46/95/93 3/94/92 2/96/94
f 46/95/93 2/96/94 47/97/95
f 47/97/95 2/96/94 1/98/96
f 47/97/95 1/98/96 48/99/97
f 48/99/97 1/98/96 41/100/98
f 48/99/97 41/100/98 49/101/99
f 49/101/99 41/100/98 40/102/100
f 49/101/99 40/102/100 50/103/101
f 50/103/101 40/102/100 39/104/102
f 50/103/101 39/104/102 51/105/103
f 51/105/103 39/104/102 38/106/104
f 51/105/103 38/106/104 52/107/105
f 52/107/105 38/106/104 37/108/106
f 52/107/105 37/108/106 53/109/107
f 53/109/107 37/108/106 36/110/108
f 53/109/107 36/110/108 54/111/109
f 54/111/109 36/110/108 35/112/110
f 54/111/109 35/112/110 55/113/111
f 55/113/111 35/112/110 34/114/112
f 55/113/111 34/114/112 56/115/113
f 56/115/113 34/114/112 33/116/114
f 56/115/113 33/116/114 57/117/115
f 57/117/115 33/116/114 32/118/116
f 57/117/115 32/118/116 58/119/117
f 58/119/117 32/118/116 31/120/118
f 58/119/117 31/120/118 59/121/119
f 59/121/119 31/120/118 30/122/120
f 59/121/119 30/122/120 60/123/121
f 60/123/121 30/122/120 29/124/122
f 60/123/121 29/124/122 61/125/123
f 61/125/123 29/124/122 28/126/124
f 61/125/123 28/126/124 62/127/125
f 62/127/125 28/126/124 27/128/126
f 62/127/125 27/128/126 63/129/127
f 63/129/127 27/128/126 26/130/128
f 63/129/127 26/130/128 64/131/129
f 64/131/129 26/130/128 25/132/130
f 64/131/129 25/132/130 65/133/131
f 65/133/131 25/132/130 24/134/132
f 65/133/131 24/134/132 66/135/133
f 66/135/133 24/134/132 23/136/134
f 66/135/133 23/136/134 67/137/135
f 67/137/135 23/136/134 22/138/136
f 67/137/135 22/138/136 68/139/137
f 68/139/137 22/138/136 21/140/138
f 68/139/137 21/140/138 69/141/139
f 69/141/139 21/140/138 20/142/140
f 69/141/139 20/142/140 70/143/141
f 70/143/141 20/142/140 19/144/142
f 70/143/141 19/144/142 71/145/143
f 71/145/143 19/144/142 18/146/144
f 71/145/143 18/146/144 72/147/145
f 72/147/145 18/146/144 17/148/146
f 72/147/145 17/148/146 73/149/147
f 73/149/147 17/148/146 16/150/148
f 73/149/147 16/150/148 74/151/149
f 74/151/149 16/150/148 15/152/150
f 74/151/149 15/152/150 75/153/151
f 75/153/151 15/152/150 14/154/152
f 75/153/151 14/154/152 76/155/153
f 76/155/153 14/154/152 13/156/154
f 76/155/153 13/156/154 77/157/155
f 77/157/155 13/156/154 12/158/156
f 77/157/155 12/158/156 78/159/157
f 78/159/157 12/158/156 11/160/158
f 78/159/157 11/160/158 79/161/159
f 79/161/159 11/160/158 10/162/160
f 79/161/159 10/162/160 80/163/161
f 80/163/161 10/162/160 9/164/162
f 80/163/161 9/164/162 81/165/163
f 81/165/163 9/164/162 8/166/164
f 81/165/163 8/166/164 82/167/165
f 82/167/165 8/166/164 7/168/166
f 82/167/165 7/168/166 83/85/85
f 83/85/85 7/168/166 6/86/86
# 84 vertices
# 168 texture params
# 166 normals
# 164 facets

# 1 groups
